<?xml version="1.0" encoding="UTF-8"?>
<svg id="Layer_1" xmlns="http://www.w3.org/2000/svg" version="1.1" viewBox="0 0 566.93 73.7">
  <!-- Generator: Adobe Illustrator 29.3.1, SVG Export Plug-In . SVG Version: 2.1.0 Build 151)  -->
  <g>
    <path d="M116.57,19.83h-9.93c-.66-4.63-3.6-7.5-9.93-7.5-5.51,0-9.12,2.13-9.12,6.25,0,3.6,2.65,5.15,7.43,6.1l5.88,1.18c9.78,1.99,15.37,5.74,15.37,13.97,0,9.49-7.79,15.66-19.56,15.66-12.35,0-20.96-6.62-21.69-17.35h9.93c.81,5.22,5.44,8.46,12.35,8.46,5.51,0,8.68-1.99,8.68-5.51,0-2.21-1.25-4.49-6.62-5.44l-8.09-1.54c-9.93-1.91-14.26-6.91-14.26-14.63,0-9.56,7.57-15.74,18.97-15.74,8.46,0,19.41,3.31,20.59,16.1Z"/>
    <path d="M157.52,19.53v35.07h-9.63v-2.79c-2.87,2.28-6.18,3.68-10.15,3.68-9.34,0-15.51-6.84-15.51-17.13v-18.82h9.63v18.24c0,5.74,2.87,8.97,7.94,8.97,2.65,0,5.59-1.62,8.09-4.63v-22.57h9.63Z"/>
    <path d="M200.64,35.56v19.04h-9.63v-18.46c0-5.74-2.87-8.75-7.94-8.75-2.65,0-5.59,1.54-8.09,4.49v22.72h-9.63V19.53h9.63v2.65c2.87-2.28,6.18-3.53,10.15-3.53,9.34,0,15.51,6.62,15.51,16.91Z"/>
    <path d="M243.21,4.61v50h-9.63v-1.99c-2.72,1.76-6.18,2.87-10.07,2.87-9.71,0-17.5-8.24-17.5-18.46s7.79-18.38,17.5-18.38c3.9,0,7.35,1.1,10.07,2.87V4.61h9.63ZM233.57,42.62v-11.1c-2.28-3.24-5.44-4.12-8.6-4.12-5.51,0-9.34,4.41-9.34,9.63s3.82,9.71,9.34,9.71c3.16,0,6.32-.88,8.6-4.12Z"/>
  </g>
  <g>
    <path d="M259.39,16.93c30-13.39,30,13.39,60,0v-8.45c-30,13.39-30-13.39-60,0v8.45Z"/>
    <path d="M259.39,33.83c30-13.39,30,13.39,60,0v-8.45c-30,13.39-30-13.39-60,0v8.45Z"/>
    <path d="M259.39,50.74c30-13.39,30,13.39,60,0v-8.45c-30,13.39-30-13.39-60,0v8.45Z"/>
  </g>
  <g>
    <path d="M377.19,40.93c0,8.16-6.91,13.68-17.94,13.68h-23.68V4.61h22.57c10.66,0,16.84,5,16.84,13.16,0,4.93-2.72,9.41-6.99,10.96,6.32,1.32,9.19,6.47,9.19,12.21ZM345.57,13.43v12.28h11.4c5.59,0,8.6-2.87,8.6-6.62s-2.87-5.66-8.6-5.66h-11.4ZM367.34,39.68c0-3.6-3.23-5.74-8.16-5.74h-13.6v11.84h13.24c5.88,0,8.53-2.87,8.53-6.1Z"/>
    <path d="M457.43,4.61v50h-9.63V4.61h9.63Z"/>
    <path d="M491.95,53.95c-3.23,1.25-5.88,1.54-8.46,1.54-9.41,0-14.7-5.88-14.7-14.85v-13.01h-7.5v-8.09h7.5V6.81h9.63v12.72h12.87v8.09h-12.87v13.01c0,4.12,2.57,5.96,6.18,5.96,2.21,0,4.27-.66,6.03-1.4l1.32,8.75Z"/>
    <path d="M423.97,18.65c-4.93,0-9.19,1.69-12.28,4.56-2.87-3.01-7.13-4.56-12.21-4.56-7.35,0-15.42,3.4-16,12.39h9.66c.49-2.84,3.06-4.38,6.34-4.38,5.52,0,6.54,3.46,6.54,7.06h-9.71c-8.82,0-14.26,3.31-14.26,10.15s5.81,11.4,14.78,11.4c5.81,0,10.59-2.28,14.04-5.15,3.31,3.38,8.02,5.37,13.68,5.37,7.72,0,13.97-3.82,16.32-10.44h-10.66c-1.25,1.54-3.01,1.99-5.59,1.99-5.51,0-8.16-3.09-8.9-7.13h25.74c1.84-12.13-5.44-21.25-17.5-21.25ZM397.28,47.4c-4.56,0-6.03-1.91-6.03-3.75,0-1.54,1.47-2.79,4.41-2.79h10.59c.15,1.1.44,2.13.81,3.16-3.75,2.65-6.4,3.38-9.78,3.38ZM415.96,33.36c.88-3.68,3.38-6.54,8.09-6.54s7.35,2.06,7.87,6.54h-15.95Z"/>
  </g>
</svg>